<svg id="Capa_1" enable-background="new 0 0 512 512" height="512" viewBox="0 0 512 512" width="512" xmlns="http://www.w3.org/2000/svg"><g><g><g><g><path d="m200.967 61.746h-30.125v-13.367l-18.566-26.548v-21.831h30.125v12.342l18.566 26.549z" fill="#fff7e7"/></g></g><g><g><path d="m337.941 61.746h-30.126v-13.367l-18.566-26.548v-21.831h30.125v12.342l18.567 26.549z" fill="#ffe6ce"/></g></g></g><g><g><path d="m130.703 370.772h-60.089c-38.937 0-70.614 31.677-70.614 70.614l17.609 7.384 223.543-6.127z" fill="#585f64"/><path d="m241.152 441.386h-241.152c0 38.937 31.677 70.614 70.614 70.614h53.89z" fill="#474f54"/></g><g><path d="m286.484 370.772h-155.781c-38.937 0-70.614 31.677-70.614 70.614l17.609 7.384 223.543-6.127z" fill="#474f54"/><path d="m301.241 441.386h-241.152c0 38.937 31.677 70.614 70.614 70.614h154.46z" fill="#31383e"/></g><g><path d="m512 400.84-25.071-14.239h-186.252c-29.413 0-53.258 23.844-53.258 53.258 0 .512.024 1.019.039 1.527l104.744 25.865 118.374-25.865c.025-22.362 18.597-40.546 41.424-40.546z" fill="#f7fcff"/><path d="m470.575 441.43c0-.015.001-.03.001-.044h-223.118c.811 28.705 24.318 51.73 53.219 51.73h193.848l17.475-11.139c-22.842 0-41.425-18.165-41.425-40.547z" fill="#ecf3fb"/></g><g><path d="m290.628 400.84h221.372v-30.068h-221.372c-38.937 0-70.614 31.677-70.614 70.614l17.609 7.384 12.459-7.384c0-22.358 18.188-40.546 40.546-40.546z" fill="#585f64"/><path d="m250.082 441.386h-30.068c0 38.937 31.677 70.614 70.614 70.614h221.372v-30.023l-221.372-.044c-22.358-.001-40.546-18.19-40.546-40.547z" fill="#474f54"/><path d="m473.658 426.086h-182.864v15.3l88.916 6.098 90.866-6.098c.006-5.412 1.106-10.576 3.082-15.3z" fill="#ecf3fb"/><path d="m473.408 456.154c-1.822-4.568-2.833-9.531-2.833-14.723 0-.015.001-.03.001-.044h-179.782v14.768h182.614z" fill="#e0e6f5"/></g></g><g><path d="m220.762 0v21.831l18.567 26.548v13.367h6.253l3.268-29.436-3.268-32.31z" fill="#fff7e7"/></g><path d="m269.454 38.891-18.567-26.549v-12.342h-5.305v61.746h23.872z" fill="#ffe6ce"/><g><path d="m119.607 104.522v61.879l125.975 21.09 16.317-49.09-16.317-33.879z" fill="#fd6c5f"/><path d="m245.582 104.522v82.969l125.974-21.09v-61.879z" fill="#fd465f"/></g><path d="m119.607 166.401v125.119c0 43.706 35.557 79.263 79.263 79.263h46.712l23.872-106.217-23.872-98.165z" fill="#fd465f"/><path d="m393.628 166.401h-148.046v204.382h46.713c43.705 0 79.262-35.556 79.262-79.261v-5.658h22.072c32.936 0 59.731-26.795 59.731-59.732 0-32.935-26.796-59.731-59.732-59.731zm0 89.338h-22.072v-59.213h22.072c16.325 0 29.606 13.281 29.606 29.606.001 16.326-13.281 29.607-29.606 29.607z" fill="#ce0c51"/></g></svg>